<svg width="16" height="16" viewBox="0 0 16 16" fill="none" xmlns="http://www.w3.org/2000/svg">
<path fill-rule="evenodd" clip-rule="evenodd" d="M8 2.64706C5.04365 2.64706 2.64706 5.04365 2.64706 8C2.64706 10.9563 5.04365 13.3529 8 13.3529C10.9563 13.3529 13.3529 10.9563 13.3529 8C13.3529 5.04365 10.9563 2.64706 8 2.64706ZM1 8C1 4.13401 4.13401 1 8 1C11.866 1 15 4.13401 15 8C15 11.866 11.866 15 8 15C4.13401 15 1 11.866 1 8Z" fill="#1C1D1E"/>
<path fill-rule="evenodd" clip-rule="evenodd" d="M7.9998 3.47058C8.45462 3.47058 8.82333 3.83929 8.82333 4.29411V7.49102L10.8387 8.4987C11.2455 8.7021 11.4104 9.19678 11.207 9.60358C11.0036 10.0104 10.5089 10.1753 10.1021 9.97188L7.63151 8.73658C7.35251 8.59708 7.17627 8.31192 7.17627 7.99999V4.29411C7.17627 3.83929 7.54498 3.47058 7.9998 3.47058Z" fill="#1C1D1E"/>
</svg>
