<svg width="16" height="16" viewBox="0 0 16 16" fill="none" xmlns="http://www.w3.org/2000/svg">
<path d="M14.3493 1H10.2259C9.86651 1 9.57525 1.29126 9.57525 1.65061C9.57525 2.00996 9.86651 2.30122 10.2259 2.30122H12.7786L6.53994 8.53985C6.28584 8.79395 6.28584 9.20586 6.53994 9.45996C6.66703 9.58698 6.83351 9.65052 6.99999 9.65052C7.16648 9.65052 7.33296 9.58698 7.46005 9.45996L13.6987 3.22133V5.77411C13.6987 6.13346 13.9899 6.42472 14.3493 6.42472C14.7086 6.42472 14.9999 6.13346 14.9999 5.77411V1.65068C14.9999 1.29126 14.7086 1 14.3493 1Z" fill="#1C1D1E"/>
<path d="M11.7712 7.60566C11.4119 7.60566 11.1206 7.89692 11.1206 8.25627V13.6508H2.30122V4.83137H8.08044C8.43979 4.83137 8.73105 4.54012 8.73105 4.18076C8.73105 3.82141 8.43979 3.53015 8.08044 3.53015H1.65061C1.29126 3.53015 1 3.82141 1 4.18076V14.3014C1 14.6607 1.29126 14.952 1.65061 14.952H11.7712C12.1306 14.952 12.4218 14.6607 12.4218 14.3014V8.25627C12.4218 7.89692 12.1306 7.60566 11.7712 7.60566Z" fill="#1C1D1E"/>
</svg>
