<svg width="16" height="16" viewBox="0 0 16 16" fill="none" xmlns="http://www.w3.org/2000/svg">
<path fill-rule="evenodd" clip-rule="evenodd" d="M2.456 9.38538V11.476C2.456 11.8374 2.59957 12.184 2.85512 12.4396C3.11067 12.6951 3.45727 12.8387 3.81867 12.8387H12.1813C12.5427 12.8387 12.8893 12.6951 13.1449 12.4396C13.4004 12.184 13.544 11.8374 13.544 11.476V9.38538H15V11.476C15 12.2236 14.703 12.9405 14.1744 13.4691C13.6458 13.9977 12.9289 14.2947 12.1813 14.2947H3.81867C3.07111 14.2947 2.35417 13.9977 1.82557 13.4691C1.29697 12.9405 1 12.2236 1 11.476V9.38538H2.456Z" fill="#111111"/>
<path fill-rule="evenodd" clip-rule="evenodd" d="M7.27084 7.60512V1H8.72684V7.60512L11.6654 4.66656L12.6949 5.69611L8.51362 9.87744C8.22931 10.1617 7.76837 10.1617 7.48407 9.87744L3.30273 5.69611L4.33228 4.66656L7.27084 7.60512Z" fill="#111111"/>
</svg>
