<svg width="20" height="20" viewBox="0 0 20 20" fill="none" xmlns="http://www.w3.org/2000/svg">
<path fill-rule="evenodd" clip-rule="evenodd" d="M7.81 1.01C5.13 1.01 3.94 1.03 3.89 1.04C3.46 1.17 3.13 1.56 3 1.99V8.27C3 15.02 3.01 16.38 3.03 16.45C3.23 16.94 3.49 17.2 4.01 17.33C4.12 17.36 10.66 17.36 10.66 17.33C10.14 17.02 9.53 16.49 9.25 16C8.2 16 5.42 16 4.33 16C4.28 15.7 4.33 5.03 4.32 2.35C5.47 2.35 8.31 2.35 9.43 2.35C9.44 3.35 9.45 5.35 9.45 6.35C9.59 6.84 9.91 7.25 10.37 7.42C10.6 7.51 10.56 7.51 12.6 7.52L14.58 7.53C14.58 7.99 14.58 10.26 14.58 10.77C15.2 11.24 15.6 11.78 15.9 12.33C15.93 12.33 15.92 6.7 15.89 6.63C15.77 6.29 15.04 5.69 13.17 3.76C10.33 0.89 10.48 1.03 10.19 1C10.13 1 9.93 1 7.81 1.01ZM12.24 4.72C13.02 5.51 13.66 6.16 13.65 6.17C13.64 6.18 13.01 6.19 12.24 6.19C11.01 6.19 10.84 6.19 10.81 6.15C10.78 6.12 10.78 5.96 10.78 4.7C10.78 3.92 10.79 3.28 10.8 3.28C10.81 3.28 11.46 3.93 12.24 4.72ZM12.12 11.12C8.35 11.71 9.09 17.23 12.9 16.77C13.33 16.71 13.6 16.55 13.92 16.41C13.93 16.41 14.41 16.88 14.98 17.46C15.55 18.04 16.03 18.51 16.04 18.51C16.09 18.47 16.81 17.75 16.98 17.58C16.6 17.19 14.97 15.56 14.89 15.45C14.89 15.44 14.94 15.33 14.99 15.22C15.98 13.26 14.34 10.83 12.12 11.12ZM12.71 12.46C14.49 12.8 14.26 15.46 12.44 15.45C10.29 15.37 10.59 12.16 12.71 12.46Z" fill="#005274"/>
</svg>
