<svg width="16" height="16" viewBox="0 0 16 16" fill="none" xmlns="http://www.w3.org/2000/svg">
<path d="M6.29313 13.7067L1.2932 8.70675C1.20025 8.61397 1.12652 8.50376 1.07621 8.38245C1.0259 8.26114 1 8.13109 1 7.99976C1 7.86843 1.0259 7.73839 1.07621 7.61708C1.12652 7.49576 1.20025 7.38556 1.2932 7.29277L6.29313 2.29284C6.38597 2.2 6.49619 2.12635 6.6175 2.07611C6.7388 2.02586 6.86881 2 7.00011 2C7.13142 2 7.26143 2.02586 7.38274 2.07611C7.50404 2.12635 7.61426 2.2 7.7071 2.29284C7.79995 2.38569 7.8736 2.49591 7.92384 2.61721C7.97409 2.73852 7.99995 2.86853 7.99995 2.99983C7.99995 3.13113 7.97409 3.26115 7.92384 3.38245C7.8736 3.50376 7.79995 3.61398 7.7071 3.70682L4.41415 6.99978H14C14.2652 6.99978 14.5196 7.10513 14.7071 7.29267C14.8946 7.4802 15 7.73455 15 7.99976C15 8.26498 14.8946 8.51933 14.7071 8.70686C14.5196 8.89439 14.2652 8.99975 14 8.99975H4.41415L7.7071 12.2927C7.80029 12.3854 7.87424 12.4955 7.9247 12.6168C7.97516 12.7382 8.00114 12.8683 8.00114 12.9997C8.00114 13.1311 7.97516 13.2612 7.9247 13.3825C7.87424 13.5039 7.80029 13.614 7.7071 13.7067C7.61432 13.7996 7.50412 13.8734 7.3828 13.9237C7.26149 13.974 7.13145 13.9999 7.00011 13.9999C6.86878 13.9999 6.73874 13.974 6.61743 13.9237C6.49611 13.8734 6.38591 13.7996 6.29313 13.7067Z" fill="#1C1D1E"/>
</svg>
