<svg width="16" height="16" viewBox="0 0 16 16" fill="none" xmlns="http://www.w3.org/2000/svg">
<path d="M12.8131 10.1264C12.1953 10.1264 11.6388 10.3828 11.2407 10.794L5.34864 7.848C5.38606 7.61852 5.38606 7.3845 5.34864 7.15502L11.2407 4.20898C11.6042 4.58445 12.0902 4.81737 12.6106 4.86556C13.131 4.91375 13.6514 4.77403 14.0777 4.4717C14.504 4.16937 14.808 3.7244 14.9346 3.21735C15.0612 2.7103 15.0021 2.17467 14.7679 1.70744C14.5338 1.2402 14.1401 0.872236 13.6581 0.670151C13.1762 0.468066 12.6378 0.445217 12.1404 0.605741C11.6431 0.766265 11.2196 1.09955 10.9467 1.54527C10.6738 1.99099 10.5695 2.51968 10.6527 3.03563L4.76065 5.98168C4.45782 5.66821 4.06826 5.45236 3.64192 5.3618C3.21558 5.27125 2.77191 5.31012 2.36781 5.47343C1.96371 5.63674 1.61762 5.91705 1.37391 6.2784C1.1302 6.63975 1 7.06566 1 7.50151C1 7.93736 1.1302 8.36327 1.37391 8.72462C1.61762 9.08597 1.96371 9.36627 2.36781 9.52959C2.77191 9.6929 3.21558 9.73177 3.64192 9.64121C4.06826 9.55066 4.45782 9.33481 4.76065 9.02134L10.6527 11.9674C10.5819 12.4092 10.6482 12.8621 10.8427 13.265C11.0373 13.6679 11.3507 14.0015 11.7408 14.2207C12.1308 14.44 12.5787 14.5343 13.0241 14.4911C13.4694 14.4478 13.8908 14.269 14.2313 13.9788C14.5719 13.6886 14.8153 13.3009 14.9286 12.8681C15.042 12.4352 15.0199 11.978 14.8653 11.5581C14.7107 11.1382 14.4311 10.7759 14.0641 10.5199C13.6971 10.2638 13.2605 10.1265 12.8131 10.1264Z" fill="#1C1D1E"/>
</svg>
