<svg width="16" height="16" viewBox="0 0 16 16" fill="none" xmlns="http://www.w3.org/2000/svg">
<path d="M12.1498 7.69634L14.8421 10.3886C14.8922 10.4386 14.9319 10.4979 14.959 10.5633C14.9861 10.6286 15 10.6986 15 10.7693C15 10.84 14.9861 10.9101 14.959 10.9754C14.9319 11.0407 14.8922 11.1001 14.8421 11.15L12.1498 13.8423C12.0998 13.8923 12.0405 13.932 11.9752 13.959C11.9098 13.9861 11.8398 14 11.7691 14C11.6984 14 11.6284 13.9861 11.5631 13.959C11.4978 13.932 11.4384 13.8923 11.3884 13.8423C11.3385 13.7923 11.2988 13.733 11.2717 13.6676C11.2447 13.6023 11.2308 13.5323 11.2308 13.4616C11.2308 13.3909 11.2447 13.3209 11.2717 13.2556C11.2988 13.1903 11.3385 13.1309 11.3884 13.0809L13.1616 11.3078L5.84608 11.3078C5.70327 11.3078 5.56631 11.2511 5.46533 11.1501C5.36435 11.0491 5.30762 10.9121 5.30762 10.7693C5.30762 10.6265 5.36435 10.4896 5.46533 10.3886C5.56631 10.2876 5.70327 10.2309 5.84608 10.2309L13.1616 10.2309L11.3884 8.45772C11.3383 8.40783 11.2985 8.34851 11.2713 8.28318C11.2441 8.21785 11.2301 8.14779 11.2301 8.07703C11.2301 8.00627 11.2441 7.93621 11.2713 7.87088C11.2985 7.80555 11.3383 7.74623 11.3884 7.69634C11.4384 7.64629 11.4977 7.60659 11.5631 7.5795C11.6284 7.55241 11.6984 7.53846 11.7691 7.53846C11.8399 7.53846 11.9099 7.55241 11.9752 7.5795C12.0405 7.60659 12.0999 7.64629 12.1498 7.69634Z" fill="#1C1D1E"/>
<path d="M3.85017 8.53437L1.15788 5.84208C1.10783 5.79212 1.06812 5.73277 1.04103 5.66745C1.01394 5.60213 1 5.5321 1 5.46139C1 5.39067 1.01394 5.32065 1.04103 5.25532C1.06812 5.19 1.10783 5.13066 1.15788 5.0807L3.85017 2.3884C3.90017 2.33841 3.95952 2.29875 4.02484 2.27169C4.09015 2.24464 4.16016 2.23071 4.23086 2.23071C4.30156 2.23071 4.37157 2.24464 4.43689 2.27169C4.50221 2.29875 4.56156 2.33841 4.61155 2.3884C4.66155 2.43839 4.7012 2.49774 4.72826 2.56306C4.75532 2.62838 4.76924 2.69839 4.76924 2.76909C4.76924 2.83979 4.75532 2.9098 4.72826 2.97512C4.7012 3.04044 4.66155 3.09979 4.61155 3.14978L2.83841 4.92293H10.1539C10.2967 4.92293 10.4337 4.97966 10.5347 5.08064C10.6357 5.18162 10.6924 5.31858 10.6924 5.46139C10.6924 5.6042 10.6357 5.74115 10.5347 5.84213C10.4337 5.94312 10.2967 5.99985 10.1539 5.99985H2.83841L4.61155 7.77299C4.66173 7.82288 4.70155 7.8822 4.72872 7.94753C4.75589 8.01287 4.76988 8.08293 4.76988 8.15368C4.76988 8.22444 4.75589 8.2945 4.72872 8.35983C4.70155 8.42517 4.66173 8.48448 4.61155 8.53437C4.56159 8.58442 4.50225 8.62413 4.43693 8.65122C4.3716 8.67831 4.30158 8.69225 4.23086 8.69225C4.16015 8.69225 4.09012 8.67831 4.0248 8.65122C3.95948 8.62413 3.90014 8.58442 3.85017 8.53437Z" fill="#1C1D1E"/>
</svg>
