<svg width="16" height="16" viewBox="0 0 16 16" fill="none" xmlns="http://www.w3.org/2000/svg">
<path d="M2.29332 6.29313L7.29325 1.2932C7.38603 1.20025 7.49624 1.12652 7.61755 1.07621C7.73886 1.0259 7.86891 1 8.00024 1C8.13157 1 8.26161 1.0259 8.38292 1.07621C8.50424 1.12652 8.61444 1.20025 8.70723 1.2932L13.7072 6.29313C13.8 6.38597 13.8736 6.49619 13.9239 6.6175C13.9741 6.7388 14 6.86881 14 7.00011C14 7.13142 13.9741 7.26143 13.9239 7.38274C13.8736 7.50404 13.8 7.61426 13.7072 7.7071C13.6143 7.79995 13.5041 7.8736 13.3828 7.92384C13.2615 7.97409 13.1315 7.99995 13.0002 7.99995C12.8689 7.99995 12.7389 7.97409 12.6175 7.92384C12.4962 7.8736 12.386 7.79995 12.2932 7.7071L9.00022 4.41415L9.00022 14C9.00022 14.2652 8.89487 14.5196 8.70733 14.7071C8.5198 14.8946 8.26545 15 8.00024 15C7.73503 15 7.48068 14.8946 7.29314 14.7071C7.10561 14.5196 7.00025 14.2652 7.00025 14L7.00025 4.41415L3.7073 7.70711C3.61465 7.80029 3.50449 7.87424 3.38316 7.9247C3.26183 7.97516 3.13172 8.00114 3.00031 8.00114C2.8689 8.00114 2.73879 7.97516 2.61746 7.9247C2.49613 7.87424 2.38597 7.80029 2.29332 7.70711C2.20038 7.61432 2.12664 7.50412 2.07633 7.3828C2.02602 7.26149 2.00012 7.13145 2.00012 7.00012C2.00012 6.86879 2.02602 6.73874 2.07633 6.61743C2.12664 6.49612 2.20038 6.38591 2.29332 6.29313Z" fill="#1C1D1E"/>
</svg>
